<svg xmlns="http://www.w3.org/2000/svg" width="218.886" height="218.886" viewBox="0 0 57.914 57.914"><g transform="translate(79.75 -150.377)"><circle r="28.957" cy="179.334" cx="-50.794" fill="#fff"/><path d="M-45.638 194.427l-1.378-.654 1.939-4.18c2.233-4.813 2.208-4.328.224-4.345-1.413-.012-2.415.2-3.564.757-1.664.804-3 2.17-3.9 3.984l-.52 1.05c-.01.022-2.587-1.147-5.725-2.598l-5.705-2.639.23-.538c.39-.909 1.496-2.703 2.428-3.942 3.516-4.667 8.585-7.618 14.422-8.395 2.54-.338 5.818-.152 8.343.472.617.153 1.137.244 1.154.203.018-.041.591-1.277 1.274-2.747.876-1.882 1.2-2.694 1.098-2.75-.268-.144-2.164-.57-3.657-.823-2.114-.357-5.807-.444-8.002-.188-6.681.779-12.607 3.63-17.405 8.373-1.986 1.964-3.808 4.315-5.084 6.558l-.594 1.045c-.027.046-2.697-1.17-2.826-1.286-.264-.238 1.936-3.852 3.615-5.937 8.082-10.041 21.882-14.512 34.295-11.11 1.322.362 3.664 1.204 4.061 1.46.113.072-.459 1.412-2.241 5.258-1.316 2.84-2.507 5.413-2.647 5.72l-.255.556-.713-.296c-2.096-.87-4.7-1.364-7.25-1.374-3.342-.014-5.906.598-8.88 2.12-1.76.9-3.13 1.9-4.613 3.369-1.345 1.331-2.444 2.677-2.273 2.783.54.334 5.547 2.547 5.606 2.478.043-.05.324-.417.624-.815 1.022-1.353 2.27-2.355 3.918-3.142 1.533-.733 2.616-.975 4.43-.988 1.563-.012 2.302.096 3.67.536.842.27 2.688 1.152 2.688 1.283 0 .181-5.214 11.35-5.31 11.372-.054.013-.718-.27-1.477-.63z" fill="#2dac61"/></g></svg>